<svg id="visual" viewBox="0 0 900 600" width="900" height="600" xmlns="http://www.w3.org/2000/svg" xmlns:xlink="http://www.w3.org/1999/xlink" version="1.1"><rect x="0" y="0" width="900" height="600" fill="#393E46"></rect><path d="M0 480L129 491L257 476L386 455L514 469L643 461L771 468L900 492L900 601L771 601L643 601L514 601L386 601L257 601L129 601L0 601Z" fill="#6d9886"></path><path d="M0 517L129 512L257 501L386 525L514 526L643 499L771 512L900 502L900 601L771 601L643 601L514 601L386 601L257 601L129 601L0 601Z" fill="#b4bfa4"></path><path d="M0 562L129 558L257 563L386 542L514 573L643 574L771 562L900 539L900 601L771 601L643 601L514 601L386 601L257 601L129 601L0 601Z" fill="#f2e7d5"></path></svg>