<?xml version="1.0" standalone="no"?>
<svg xmlns:xlink="http://www.w3.org/1999/xlink" id="wave" style="transform:rotate(180deg); transition: 0.3s" viewBox="0 0 1440 140" version="1.1" xmlns="http://www.w3.org/2000/svg"><defs><linearGradient id="sw-gradient-0" x1="0" x2="0" y1="1" y2="0"><stop stop-color="rgba(243, 106, 62, 1)" offset="0%"/><stop stop-color="rgba(255, 179, 11, 1)" offset="100%"/></linearGradient></defs><path style="transform:translate(0, 0px); opacity:1" fill="url(#sw-gradient-0)" d="M0,126L60,119C120,112,240,98,360,79.3C480,61,600,37,720,25.7C840,14,960,14,1080,30.3C1200,47,1320,79,1440,84C1560,89,1680,65,1800,46.7C1920,28,2040,14,2160,28C2280,42,2400,84,2520,88.7C2640,93,2760,61,2880,60.7C3000,61,3120,93,3240,102.7C3360,112,3480,98,3600,84C3720,70,3840,56,3960,60.7C4080,65,4200,89,4320,102.7C4440,117,4560,121,4680,123.7C4800,126,4920,126,5040,105C5160,84,5280,42,5400,30.3C5520,19,5640,37,5760,49C5880,61,6000,65,6120,74.7C6240,84,6360,98,6480,98C6600,98,6720,84,6840,72.3C6960,61,7080,51,7200,51.3C7320,51,7440,61,7560,67.7C7680,75,7800,79,7920,77C8040,75,8160,65,8280,70C8400,75,8520,93,8580,102.7L8640,112L8640,140L8580,140C8520,140,8400,140,8280,140C8160,140,8040,140,7920,140C7800,140,7680,140,7560,140C7440,140,7320,140,7200,140C7080,140,6960,140,6840,140C6720,140,6600,140,6480,140C6360,140,6240,140,6120,140C6000,140,5880,140,5760,140C5640,140,5520,140,5400,140C5280,140,5160,140,5040,140C4920,140,4800,140,4680,140C4560,140,4440,140,4320,140C4200,140,4080,140,3960,140C3840,140,3720,140,3600,140C3480,140,3360,140,3240,140C3120,140,3000,140,2880,140C2760,140,2640,140,2520,140C2400,140,2280,140,2160,140C2040,140,1920,140,1800,140C1680,140,1560,140,1440,140C1320,140,1200,140,1080,140C960,140,840,140,720,140C600,140,480,140,360,140C240,140,120,140,60,140L0,140Z"/></svg>